<svg width="114" height="30" viewBox="0 0 114 30" fill="none" xmlns="http://www.w3.org/2000/svg">
<rect width="2" height="2" transform="matrix(-1 0 0 1 110 0)" fill="#E5E5ED"/>
<rect width="2" height="2" transform="matrix(-1 0 0 1 106 0)" fill="#E5E5ED"/>
<rect width="2" height="2" transform="matrix(-1 0 0 1 102 0)" fill="#E5E5ED"/>
<rect width="2" height="2" transform="matrix(-1 0 0 1 98 0)" fill="#E5E5ED"/>
<rect width="2" height="2" transform="matrix(-1 0 0 1 94 0)" fill="#E5E5ED"/>
<rect width="2" height="2" transform="matrix(-1 0 0 1 90 0)" fill="#E5E5ED"/>
<rect width="2" height="2" transform="matrix(-1 0 0 1 86 0)" fill="#E5E5ED"/>
<rect width="2" height="2" transform="matrix(-1 0 0 1 82 0)" fill="#E5E5ED"/>
<rect width="2" height="2" transform="matrix(-1 0 0 1 78 0)" fill="#E5E5ED"/>
<rect width="2" height="2" transform="matrix(-1 0 0 1 74 0)" fill="#E5E5ED"/>
<rect width="2" height="2" transform="matrix(-1 0 0 1 70 0)" fill="#E5E5ED"/>
<rect width="2" height="2" transform="matrix(-1 0 0 1 66 0)" fill="#E5E5ED"/>
<rect width="2" height="2" transform="matrix(-1 0 0 1 62 0)" fill="#E5E5ED"/>
<rect width="2" height="2" transform="matrix(-1 0 0 1 58 0)" fill="#E5E5ED"/>
<rect width="2" height="2" transform="matrix(-1 0 0 1 54 0)" fill="#E5E5ED"/>
<rect width="2" height="2" transform="matrix(-1 0 0 1 50 0)" fill="#E5E5ED"/>
<rect width="2" height="2" transform="matrix(-1 0 0 1 46 0)" fill="#E5E5ED"/>
<rect width="2" height="2" transform="matrix(-1 0 0 1 42 0)" fill="#E5E5ED"/>
<rect width="2" height="2" transform="matrix(-1 0 0 1 38 0)" fill="#E5E5ED"/>
<rect width="2" height="2" transform="matrix(-1 0 0 1 34 0)" fill="#E5E5ED"/>
<rect width="2" height="2" transform="matrix(-1 0 0 1 30 0)" fill="#E5E5ED"/>
<rect width="2" height="2" transform="matrix(-1 0 0 1 26 0)" fill="#E5E5ED"/>
<rect width="2" height="2" transform="matrix(-1 0 0 1 22 0)" fill="#E5E5ED"/>
<rect width="2" height="2" transform="matrix(-1 0 0 1 18 0)" fill="#E5E5ED"/>
<rect width="2" height="2" transform="matrix(-1 0 0 1 14 0)" fill="#E5E5ED"/>
<rect width="2" height="2" transform="matrix(-1 0 0 1 10 0)" fill="#E5E5ED"/>
<rect width="2" height="2" transform="matrix(-1 0 0 1 6 0)" fill="#E5E5ED"/>
<rect width="2" height="2" transform="matrix(-1 0 0 1 2 0)" fill="#E5E5ED"/>
<rect width="2" height="2" transform="matrix(-1 0 0 1 110 4)" fill="#E5E5ED"/>
<rect width="2" height="2" transform="matrix(-1 0 0 1 114 4)" fill="#E5E5ED"/>
<rect width="2" height="2" transform="matrix(-1 0 0 1 106 4)" fill="#E5E5ED"/>
<rect width="2" height="2" transform="matrix(-1 0 0 1 102 4)" fill="#E5E5ED"/>
<rect width="2" height="2" transform="matrix(-1 0 0 1 98 4)" fill="#E5E5ED"/>
<rect width="2" height="2" transform="matrix(-1 0 0 1 94 4)" fill="#E5E5ED"/>
<rect width="2" height="2" transform="matrix(-1 0 0 1 90 4)" fill="#E5E5ED"/>
<rect width="2" height="2" transform="matrix(-1 0 0 1 86 4)" fill="#E5E5ED"/>
<rect width="2" height="2" transform="matrix(-1 0 0 1 82 4)" fill="#E5E5ED"/>
<rect width="2" height="2" transform="matrix(-1 0 0 1 78 4)" fill="#E5E5ED"/>
<rect width="2" height="2" transform="matrix(-1 0 0 1 74 4)" fill="#E5E5ED"/>
<rect width="2" height="2" transform="matrix(-1 0 0 1 70 4)" fill="#E5E5ED"/>
<rect width="2" height="2" transform="matrix(-1 0 0 1 66 4)" fill="#E5E5ED"/>
<rect width="2" height="2" transform="matrix(-1 0 0 1 62 4)" fill="#E5E5ED"/>
<rect width="2" height="2" transform="matrix(-1 0 0 1 58 4)" fill="#E5E5ED"/>
<rect width="2" height="2" transform="matrix(-1 0 0 1 54 4)" fill="#E5E5ED"/>
<rect width="2" height="2" transform="matrix(-1 0 0 1 50 4)" fill="#E5E5ED"/>
<rect width="2" height="2" transform="matrix(-1 0 0 1 46 4)" fill="#E5E5ED"/>
<rect width="2" height="2" transform="matrix(-1 0 0 1 42 4)" fill="#E5E5ED"/>
<rect width="2" height="2" transform="matrix(-1 0 0 1 38 4)" fill="#E5E5ED"/>
<rect width="2" height="2" transform="matrix(-1 0 0 1 34 4)" fill="#E5E5ED"/>
<rect width="2" height="2" transform="matrix(-1 0 0 1 30 4)" fill="#E5E5ED"/>
<rect width="2" height="2" transform="matrix(-1 0 0 1 26 4)" fill="#E5E5ED"/>
<rect width="2" height="2" transform="matrix(-1 0 0 1 22 4)" fill="#E5E5ED"/>
<rect width="2" height="2" transform="matrix(-1 0 0 1 18 4)" fill="#E5E5ED"/>
<rect width="2" height="2" transform="matrix(-1 0 0 1 14 4)" fill="#E5E5ED"/>
<rect width="2" height="2" transform="matrix(-1 0 0 1 10 4)" fill="#E5E5ED"/>
<rect width="2" height="2" transform="matrix(-1 0 0 1 6 4)" fill="#E5E5ED"/>
<rect width="2" height="2" transform="matrix(-1 0 0 1 2 4)" fill="#E5E5ED"/>
<rect width="2" height="2" transform="matrix(-1 0 0 1 110 8)" fill="#E5E5ED"/>
<rect width="2" height="2" transform="matrix(-1 0 0 1 114 8)" fill="#E5E5ED"/>
<rect width="2" height="2" transform="matrix(-1 0 0 1 106 8)" fill="#E5E5ED"/>
<rect width="2" height="2" transform="matrix(-1 0 0 1 102 8)" fill="#E5E5ED"/>
<rect width="2" height="2" transform="matrix(-1 0 0 1 98 8)" fill="#E5E5ED"/>
<rect width="2" height="2" transform="matrix(-1 0 0 1 94 8)" fill="#E5E5ED"/>
<rect width="2" height="2" transform="matrix(-1 0 0 1 90 8)" fill="#E5E5ED"/>
<rect width="2" height="2" transform="matrix(-1 0 0 1 86 8)" fill="#E5E5ED"/>
<rect width="2" height="2" transform="matrix(-1 0 0 1 82 8)" fill="#E5E5ED"/>
<rect width="2" height="2" transform="matrix(-1 0 0 1 78 8)" fill="#E5E5ED"/>
<rect width="2" height="2" transform="matrix(-1 0 0 1 74 8)" fill="#E5E5ED"/>
<rect width="2" height="2" transform="matrix(-1 0 0 1 70 8)" fill="#E5E5ED"/>
<rect width="2" height="2" transform="matrix(-1 0 0 1 66 8)" fill="#E5E5ED"/>
<rect width="2" height="2" transform="matrix(-1 0 0 1 62 8)" fill="#E5E5ED"/>
<rect width="2" height="2" transform="matrix(-1 0 0 1 58 8)" fill="#E5E5ED"/>
<rect width="2" height="2" transform="matrix(-1 0 0 1 54 8)" fill="#E5E5ED"/>
<rect width="2" height="2" transform="matrix(-1 0 0 1 50 8)" fill="#E5E5ED"/>
<rect width="2" height="2" transform="matrix(-1 0 0 1 46 8)" fill="#E5E5ED"/>
<rect width="2" height="2" transform="matrix(-1 0 0 1 42 8)" fill="#E5E5ED"/>
<rect width="2" height="2" transform="matrix(-1 0 0 1 38 8)" fill="#E5E5ED"/>
<rect width="2" height="2" transform="matrix(-1 0 0 1 34 8)" fill="#E5E5ED"/>
<rect width="2" height="2" transform="matrix(-1 0 0 1 30 8)" fill="#E5E5ED"/>
<rect width="2" height="2" transform="matrix(-1 0 0 1 26 8)" fill="#E5E5ED"/>
<rect width="2" height="2" transform="matrix(-1 0 0 1 22 8)" fill="#E5E5ED"/>
<rect width="2" height="2" transform="matrix(-1 0 0 1 18 8)" fill="#E5E5ED"/>
<rect width="2" height="2" transform="matrix(-1 0 0 1 14 8)" fill="#E5E5ED"/>
<rect width="2" height="2" transform="matrix(-1 0 0 1 10 8)" fill="#E5E5ED"/>
<rect width="2" height="2" transform="matrix(-1 0 0 1 6 8)" fill="#E5E5ED"/>
<rect width="2" height="2" transform="matrix(-1 0 0 1 2 8)" fill="#E5E5ED"/>
<rect width="2" height="2" transform="matrix(-1 0 0 1 110 12)" fill="#E5E5ED"/>
<rect width="2" height="2" transform="matrix(-1 0 0 1 114 12)" fill="#E5E5ED"/>
<rect width="2" height="2" transform="matrix(-1 0 0 1 106 12)" fill="#E5E5ED"/>
<rect width="2" height="2" transform="matrix(-1 0 0 1 102 12)" fill="#E5E5ED"/>
<rect width="2" height="2" transform="matrix(-1 0 0 1 98 12)" fill="#E5E5ED"/>
<rect width="2" height="2" transform="matrix(-1 0 0 1 94 12)" fill="#E5E5ED"/>
<rect width="2" height="2" transform="matrix(-1 0 0 1 90 12)" fill="#E5E5ED"/>
<rect width="2" height="2" transform="matrix(-1 0 0 1 86 12)" fill="#E5E5ED"/>
<rect width="2" height="2" transform="matrix(-1 0 0 1 82 12)" fill="#E5E5ED"/>
<rect width="2" height="2" transform="matrix(-1 0 0 1 78 12)" fill="#E5E5ED"/>
<rect width="2" height="2" transform="matrix(-1 0 0 1 74 12)" fill="#E5E5ED"/>
<rect width="2" height="2" transform="matrix(-1 0 0 1 70 12)" fill="#E5E5ED"/>
<rect width="2" height="2" transform="matrix(-1 0 0 1 66 12)" fill="#E5E5ED"/>
<rect width="2" height="2" transform="matrix(-1 0 0 1 62 12)" fill="#E5E5ED"/>
<rect width="2" height="2" transform="matrix(-1 0 0 1 58 12)" fill="#E5E5ED"/>
<rect width="2" height="2" transform="matrix(-1 0 0 1 54 12)" fill="#E5E5ED"/>
<rect width="2" height="2" transform="matrix(-1 0 0 1 50 12)" fill="#E5E5ED"/>
<rect width="2" height="2" transform="matrix(-1 0 0 1 46 12)" fill="#E5E5ED"/>
<rect width="2" height="2" transform="matrix(-1 0 0 1 42 12)" fill="#E5E5ED"/>
<rect width="2" height="2" transform="matrix(-1 0 0 1 38 12)" fill="#E5E5ED"/>
<rect width="2" height="2" transform="matrix(-1 0 0 1 34 12)" fill="#E5E5ED"/>
<rect width="2" height="2" transform="matrix(-1 0 0 1 30 12)" fill="#E5E5ED"/>
<rect width="2" height="2" transform="matrix(-1 0 0 1 26 12)" fill="#E5E5ED"/>
<rect width="2" height="2" transform="matrix(-1 0 0 1 22 12)" fill="#E5E5ED"/>
<rect width="2" height="2" transform="matrix(-1 0 0 1 18 12)" fill="#E5E5ED"/>
<rect width="2" height="2" transform="matrix(-1 0 0 1 14 12)" fill="#E5E5ED"/>
<rect width="2" height="2" transform="matrix(-1 0 0 1 10 12)" fill="#E5E5ED"/>
<rect width="2" height="2" transform="matrix(-1 0 0 1 6 12)" fill="#E5E5ED"/>
<rect width="2" height="2" transform="matrix(-1 0 0 1 2 12)" fill="#E5E5ED"/>
<rect width="2" height="2" transform="matrix(-1 0 0 1 110 16)" fill="#E5E5ED"/>
<rect width="2" height="2" transform="matrix(-1 0 0 1 114 16)" fill="#E5E5ED"/>
<rect width="2" height="2" transform="matrix(-1 0 0 1 106 16)" fill="#E5E5ED"/>
<rect width="2" height="2" transform="matrix(-1 0 0 1 102 16)" fill="#E5E5ED"/>
<rect width="2" height="2" transform="matrix(-1 0 0 1 98 16)" fill="#E5E5ED"/>
<rect width="2" height="2" transform="matrix(-1 0 0 1 94 16)" fill="#E5E5ED"/>
<rect width="2" height="2" transform="matrix(-1 0 0 1 90 16)" fill="#E5E5ED"/>
<rect width="2" height="2" transform="matrix(-1 0 0 1 86 16)" fill="#E5E5ED"/>
<rect width="2" height="2" transform="matrix(-1 0 0 1 82 16)" fill="#E5E5ED"/>
<rect width="2" height="2" transform="matrix(-1 0 0 1 78 16)" fill="#E5E5ED"/>
<rect width="2" height="2" transform="matrix(-1 0 0 1 74 16)" fill="#E5E5ED"/>
<rect width="2" height="2" transform="matrix(-1 0 0 1 70 16)" fill="#E5E5ED"/>
<rect width="2" height="2" transform="matrix(-1 0 0 1 66 16)" fill="#E5E5ED"/>
<rect width="2" height="2" transform="matrix(-1 0 0 1 62 16)" fill="#E5E5ED"/>
<rect width="2" height="2" transform="matrix(-1 0 0 1 58 16)" fill="#E5E5ED"/>
<rect width="2" height="2" transform="matrix(-1 0 0 1 54 16)" fill="#E5E5ED"/>
<rect width="2" height="2" transform="matrix(-1 0 0 1 50 16)" fill="#E5E5ED"/>
<rect width="2" height="2" transform="matrix(-1 0 0 1 46 16)" fill="#E5E5ED"/>
<rect width="2" height="2" transform="matrix(-1 0 0 1 42 16)" fill="#E5E5ED"/>
<rect width="2" height="2" transform="matrix(-1 0 0 1 38 16)" fill="#E5E5ED"/>
<rect width="2" height="2" transform="matrix(-1 0 0 1 34 16)" fill="#E5E5ED"/>
<rect width="2" height="2" transform="matrix(-1 0 0 1 30 16)" fill="#E5E5ED"/>
<rect width="2" height="2" transform="matrix(-1 0 0 1 26 16)" fill="#E5E5ED"/>
<rect width="2" height="2" transform="matrix(-1 0 0 1 22 16)" fill="#E5E5ED"/>
<rect width="2" height="2" transform="matrix(-1 0 0 1 18 16)" fill="#E5E5ED"/>
<rect width="2" height="2" transform="matrix(-1 0 0 1 14 16)" fill="#E5E5ED"/>
<rect width="2" height="2" transform="matrix(-1 0 0 1 10 16)" fill="#E5E5ED"/>
<rect width="2" height="2" transform="matrix(-1 0 0 1 6 16)" fill="#E5E5ED"/>
<rect width="2" height="2" transform="matrix(-1 0 0 1 2 16)" fill="#E5E5ED"/>
<rect width="2" height="2" transform="matrix(-1 0 0 1 110 20)" fill="#E5E5ED"/>
<rect width="2" height="2" transform="matrix(-1 0 0 1 114 20)" fill="#E5E5ED"/>
<rect width="2" height="2" transform="matrix(-1 0 0 1 106 20)" fill="#E5E5ED"/>
<rect width="2" height="2" transform="matrix(-1 0 0 1 102 20)" fill="#E5E5ED"/>
<rect width="2" height="2" transform="matrix(-1 0 0 1 98 20)" fill="#E5E5ED"/>
<rect width="2" height="2" transform="matrix(-1 0 0 1 94 20)" fill="#E5E5ED"/>
<rect width="2" height="2" transform="matrix(-1 0 0 1 90 20)" fill="#E5E5ED"/>
<rect width="2" height="2" transform="matrix(-1 0 0 1 86 20)" fill="#E5E5ED"/>
<rect width="2" height="2" transform="matrix(-1 0 0 1 82 20)" fill="#E5E5ED"/>
<rect width="2" height="2" transform="matrix(-1 0 0 1 78 20)" fill="#E5E5ED"/>
<rect width="2" height="2" transform="matrix(-1 0 0 1 74 20)" fill="#E5E5ED"/>
<rect width="2" height="2" transform="matrix(-1 0 0 1 70 20)" fill="#E5E5ED"/>
<rect width="2" height="2" transform="matrix(-1 0 0 1 66 20)" fill="#E5E5ED"/>
<rect width="2" height="2" transform="matrix(-1 0 0 1 62 20)" fill="#E5E5ED"/>
<rect width="2" height="2" transform="matrix(-1 0 0 1 58 20)" fill="#E5E5ED"/>
<rect width="2" height="2" transform="matrix(-1 0 0 1 54 20)" fill="#E5E5ED"/>
<rect width="2" height="2" transform="matrix(-1 0 0 1 50 20)" fill="#E5E5ED"/>
<rect width="2" height="2" transform="matrix(-1 0 0 1 46 20)" fill="#E5E5ED"/>
<rect width="2" height="2" transform="matrix(-1 0 0 1 42 20)" fill="#E5E5ED"/>
<rect width="2" height="2" transform="matrix(-1 0 0 1 38 20)" fill="#E5E5ED"/>
<rect width="2" height="2" transform="matrix(-1 0 0 1 34 20)" fill="#E5E5ED"/>
<rect width="2" height="2" transform="matrix(-1 0 0 1 30 20)" fill="#E5E5ED"/>
<rect width="2" height="2" transform="matrix(-1 0 0 1 26 20)" fill="#E5E5ED"/>
<rect width="2" height="2" transform="matrix(-1 0 0 1 22 20)" fill="#E5E5ED"/>
<rect width="2" height="2" transform="matrix(-1 0 0 1 18 20)" fill="#E5E5ED"/>
<rect width="2" height="2" transform="matrix(-1 0 0 1 14 20)" fill="#E5E5ED"/>
<rect width="2" height="2" transform="matrix(-1 0 0 1 10 20)" fill="#E5E5ED"/>
<rect width="2" height="2" transform="matrix(-1 0 0 1 6 20)" fill="#E5E5ED"/>
<rect width="2" height="2" transform="matrix(-1 0 0 1 2 20)" fill="#E5E5ED"/>
<rect width="2" height="2" transform="matrix(-1 0 0 1 110 24)" fill="#E5E5ED"/>
<rect width="2" height="2" transform="matrix(-1 0 0 1 110 28)" fill="#E5E5ED"/>
<rect width="2" height="2" transform="matrix(-1 0 0 1 114 24)" fill="#E5E5ED"/>
<rect width="2" height="2" transform="matrix(-1 0 0 1 114 28)" fill="#E5E5ED"/>
<rect width="2" height="2" transform="matrix(-1 0 0 1 106 24)" fill="#E5E5ED"/>
<rect width="2" height="2" transform="matrix(-1 0 0 1 106 28)" fill="#E5E5ED"/>
<rect width="2" height="2" transform="matrix(-1 0 0 1 102 24)" fill="#E5E5ED"/>
<rect width="2" height="2" transform="matrix(-1 0 0 1 102 28)" fill="#E5E5ED"/>
<rect width="2" height="2" transform="matrix(-1 0 0 1 98 24)" fill="#E5E5ED"/>
<rect width="2" height="2" transform="matrix(-1 0 0 1 98 28)" fill="#E5E5ED"/>
<rect width="2" height="2" transform="matrix(-1 0 0 1 94 24)" fill="#E5E5ED"/>
<rect width="2" height="2" transform="matrix(-1 0 0 1 94 28)" fill="#E5E5ED"/>
<rect width="2" height="2" transform="matrix(-1 0 0 1 90 24)" fill="#E5E5ED"/>
<rect width="2" height="2" transform="matrix(-1 0 0 1 90 28)" fill="#E5E5ED"/>
<rect width="2" height="2" transform="matrix(-1 0 0 1 86 24)" fill="#E5E5ED"/>
<rect width="2" height="2" transform="matrix(-1 0 0 1 86 28)" fill="#E5E5ED"/>
<rect width="2" height="2" transform="matrix(-1 0 0 1 82 24)" fill="#E5E5ED"/>
<rect width="2" height="2" transform="matrix(-1 0 0 1 82 28)" fill="#E5E5ED"/>
<rect width="2" height="2" transform="matrix(-1 0 0 1 78 24)" fill="#E5E5ED"/>
<rect width="2" height="2" transform="matrix(-1 0 0 1 78 28)" fill="#E5E5ED"/>
<rect width="2" height="2" transform="matrix(-1 0 0 1 74 24)" fill="#E5E5ED"/>
<rect width="2" height="2" transform="matrix(-1 0 0 1 74 28)" fill="#E5E5ED"/>
<rect width="2" height="2" transform="matrix(-1 0 0 1 70 24)" fill="#E5E5ED"/>
<rect width="2" height="2" transform="matrix(-1 0 0 1 70 28)" fill="#E5E5ED"/>
<rect width="2" height="2" transform="matrix(-1 0 0 1 66 24)" fill="#E5E5ED"/>
<rect width="2" height="2" transform="matrix(-1 0 0 1 66 28)" fill="#E5E5ED"/>
<rect width="2" height="2" transform="matrix(-1 0 0 1 62 24)" fill="#E5E5ED"/>
<rect width="2" height="2" transform="matrix(-1 0 0 1 62 28)" fill="#E5E5ED"/>
<rect width="2" height="2" transform="matrix(-1 0 0 1 58 24)" fill="#E5E5ED"/>
<rect width="2" height="2" transform="matrix(-1 0 0 1 58 28)" fill="#E5E5ED"/>
<rect width="2" height="2" transform="matrix(-1 0 0 1 54 24)" fill="#E5E5ED"/>
<rect width="2" height="2" transform="matrix(-1 0 0 1 54 28)" fill="#E5E5ED"/>
<rect width="2" height="2" transform="matrix(-1 0 0 1 50 24)" fill="#E5E5ED"/>
<rect width="2" height="2" transform="matrix(-1 0 0 1 50 28)" fill="#E5E5ED"/>
<rect width="2" height="2" transform="matrix(-1 0 0 1 46 24)" fill="#E5E5ED"/>
<rect width="2" height="2" transform="matrix(-1 0 0 1 46 28)" fill="#E5E5ED"/>
<rect width="2" height="2" transform="matrix(-1 0 0 1 42 24)" fill="#E5E5ED"/>
<rect width="2" height="2" transform="matrix(-1 0 0 1 42 28)" fill="#E5E5ED"/>
<rect width="2" height="2" transform="matrix(-1 0 0 1 38 24)" fill="#E5E5ED"/>
<rect width="2" height="2" transform="matrix(-1 0 0 1 38 28)" fill="#E5E5ED"/>
<rect width="2" height="2" transform="matrix(-1 0 0 1 34 24)" fill="#E5E5ED"/>
<rect width="2" height="2" transform="matrix(-1 0 0 1 34 28)" fill="#E5E5ED"/>
<rect width="2" height="2" transform="matrix(-1 0 0 1 30 24)" fill="#E5E5ED"/>
<rect width="2" height="2" transform="matrix(-1 0 0 1 26 24)" fill="#E5E5ED"/>
<rect width="2" height="2" transform="matrix(-1 0 0 1 22 24)" fill="#E5E5ED"/>
<rect width="2" height="2" transform="matrix(-1 0 0 1 18 24)" fill="#E5E5ED"/>
<rect width="2" height="2" transform="matrix(-1 0 0 1 14 24)" fill="#E5E5ED"/>
<rect width="2" height="2" transform="matrix(-1 0 0 1 10 24)" fill="#E5E5ED"/>
<rect width="2" height="2" transform="matrix(-1 0 0 1 6 24)" fill="#E5E5ED"/>
<rect width="2" height="2" transform="matrix(-1 0 0 1 2 24)" fill="#E5E5ED"/>
<rect width="2" height="2" transform="matrix(-1 0 0 1 30 28)" fill="#E5E5ED"/>
<rect width="2" height="2" transform="matrix(-1 0 0 1 26 28)" fill="#E5E5ED"/>
<rect width="2" height="2" transform="matrix(-1 0 0 1 22 28)" fill="#E5E5ED"/>
<rect width="2" height="2" transform="matrix(-1 0 0 1 18 28)" fill="#E5E5ED"/>
<rect width="2" height="2" transform="matrix(-1 0 0 1 14 28)" fill="#E5E5ED"/>
<rect width="2" height="2" transform="matrix(-1 0 0 1 10 28)" fill="#E5E5ED"/>
<rect width="2" height="2" transform="matrix(-1 0 0 1 6 28)" fill="#E5E5ED"/>
<rect width="2" height="2" transform="matrix(-1 0 0 1 2 28)" fill="#E5E5ED"/>
</svg>
