<svg width="32" height="32" viewBox="0 0 32 32" fill="none" xmlns="http://www.w3.org/2000/svg">
<path fill-rule="evenodd" clip-rule="evenodd" d="M5.32733 4.26007C5.73599 3.88856 6.36844 3.91868 6.73995 4.32733L26.7399 26.3273C27.1115 26.736 27.0813 27.3684 26.6727 27.7399C26.264 28.1115 25.6316 28.0813 25.2601 27.6727L5.26007 5.67268C4.88856 5.26402 4.91868 4.63157 5.32733 4.26007Z" fill="white"/>
<path fill-rule="evenodd" clip-rule="evenodd" d="M13.3775 11.6272C13.7489 12.0359 13.7188 12.6683 13.3101 13.0398C12.7126 13.5828 12.2935 14.2939 12.1078 15.0796C11.922 15.8653 11.9784 16.6888 12.2695 17.4418C12.5605 18.1949 13.0726 18.8422 13.7385 19.2988C14.4043 19.7553 15.1927 19.9997 16.0001 19.9998L16.0038 19.9998C16.9968 20.0036 17.9548 19.6332 18.687 18.9624C19.0942 18.5894 19.7268 18.6171 20.0998 19.0243C20.4729 19.4316 20.4452 20.0641 20.0379 20.4372C18.9354 21.4472 17.4931 22.005 15.998 21.9998C14.7876 21.9993 13.6057 21.6328 12.6075 20.9483C11.6087 20.2634 10.8405 19.2924 10.4039 18.1628C9.96737 17.0333 9.88283 15.798 10.1614 14.6195C10.44 13.441 11.0687 12.3743 11.9648 11.5598C12.3735 11.1883 13.006 11.2185 13.3775 11.6272Z" fill="white"/>
<path fill-rule="evenodd" clip-rule="evenodd" d="M10.1426 8.12449C10.3916 8.61749 10.1937 9.21895 9.70069 9.46787C7.3238 10.668 5.62056 12.4064 4.50642 13.8613C3.95101 14.5866 3.54759 15.2342 3.28502 15.6962C3.22082 15.8092 3.16514 15.9109 3.11783 15.9997C3.23548 16.2201 3.40451 16.5195 3.62746 16.8736C4.1285 17.6694 4.89611 18.7321 5.95708 19.7931C8.07326 21.9093 11.3326 24.0002 16 24.0002H16.0081C18.1923 24.018 20.3493 23.5147 22.3001 22.5321C22.7934 22.2836 23.3946 22.4821 23.6431 22.9753C23.8915 23.4686 23.6931 24.0698 23.1998 24.3183C20.9662 25.4434 18.4967 26.0199 15.9958 26.0002C10.6654 25.9989 6.92607 23.5905 4.54287 21.2073C3.35384 20.0183 2.49645 18.831 1.93499 17.9393C1.65377 17.4926 1.44537 17.1179 1.30555 16.8509C1.2356 16.7174 1.1827 16.6106 1.14634 16.5351C1.12815 16.4973 1.11409 16.4673 1.10408 16.4457L1.09211 16.4196L1.08838 16.4113L1.08709 16.4084L1.08658 16.4073C1.08636 16.4068 1.08616 16.4063 1.99997 16.0002C1.08577 15.5949 1.08592 15.5946 1.08607 15.5943L1.08726 15.5916L1.08955 15.5865L1.09655 15.571C1.1023 15.5584 1.11023 15.5413 1.12035 15.5197C1.1406 15.4766 1.16964 15.4161 1.2077 15.3399C1.28379 15.1876 1.39606 14.9722 1.54618 14.7081C1.84611 14.1803 2.29894 13.4544 2.91853 12.6453C4.15439 11.0315 6.07615 9.05743 8.79926 7.68253C9.29227 7.43361 9.89372 7.63148 10.1426 8.12449ZM1.99997 16.0002L1.08607 15.5943C0.971534 15.8526 0.97138 16.1481 1.08616 16.4063L1.99997 16.0002Z" fill="white"/>
<path fill-rule="evenodd" clip-rule="evenodd" d="M13.2474 6.22625C14.1573 6.07394 15.0784 5.99826 16.001 6.00003C16.0007 6.00003 16.0013 6.00003 16.001 6.00003L16 7.00003V6.00003C16.0003 6.00003 16.0007 6.00003 16.001 6.00003C21.3331 6.00033 25.0734 8.40925 27.4571 10.7929C28.6461 11.9819 29.5035 13.1692 30.065 14.061C30.3462 14.5076 30.5546 14.8824 30.6944 15.1493C30.7644 15.2828 30.8173 15.3896 30.8536 15.4651C30.8718 15.5029 30.8859 15.5329 30.8959 15.5545L30.9079 15.5807L30.9116 15.5889L30.9129 15.5918L30.9134 15.593C30.9136 15.5934 30.9138 15.5939 30 16C29.0862 15.5939 29.0863 15.5937 29.0864 15.5935L29.0788 15.61C29.0717 15.6253 29.0599 15.6503 29.0435 15.6842C29.0105 15.7522 28.9586 15.856 28.8873 15.99C28.8855 15.9933 28.8837 15.9967 28.8819 16C28.7643 15.7797 28.5953 15.4804 28.3725 15.1266C27.8715 14.3308 27.1039 13.2681 26.0429 12.2071C23.9267 10.091 20.6674 8.00003 16 8.00003H15.998C15.1871 7.99843 14.3774 8.06492 13.5776 8.19881C13.0329 8.28999 12.5174 7.92233 12.4262 7.37763C12.3351 6.83292 12.7027 6.31743 13.2474 6.22625ZM30 16L30.9138 16.4062C31.0287 16.1476 31.0287 15.8525 30.9138 15.5939L30 16ZM28.8819 16C28.739 16.2677 28.5207 16.6513 28.2224 17.1074C27.617 18.0333 26.6904 19.2454 25.4083 20.3922C24.9967 20.7604 24.9615 21.3926 25.3297 21.8042C25.6979 22.2159 26.3301 22.2511 26.7417 21.8829C28.1846 20.5922 29.2205 19.2355 29.8963 18.202C30.2349 17.6842 30.4852 17.2444 30.6526 16.93C30.7363 16.7727 30.7995 16.6466 30.8428 16.5574C30.8644 16.5128 30.8811 16.4774 30.8929 16.4519L30.907 16.4213L30.9113 16.4118L30.9128 16.4085L30.9134 16.4072C30.9135 16.407 30.9138 16.4062 30 16C29.0862 16.4062 29.0864 16.4065 29.0865 16.4069L29.0806 16.3939C29.0748 16.3815 29.0652 16.3609 29.0516 16.3328C29.0245 16.2765 28.9817 16.1899 28.9228 16.0773C28.9099 16.0528 28.8963 16.027 28.8819 16Z" fill="white"/>
<path fill-rule="evenodd" clip-rule="evenodd" d="M15.9549 10.9017C16.0577 10.3591 16.581 10.0026 17.1236 10.1054C18.4001 10.3472 19.5633 10.9977 20.4377 11.9587C21.312 12.9197 21.8501 14.139 21.9706 15.4326C22.0219 15.9825 21.6176 16.4698 21.0677 16.5211C20.5178 16.5723 20.0305 16.1681 19.9793 15.6182C19.899 14.7567 19.5406 13.9447 18.9583 13.3047C18.376 12.6647 17.6014 12.2315 16.7513 12.0704C16.2086 11.9676 15.8521 11.4444 15.9549 10.9017Z" fill="white"/>
</svg>
