<svg width="32" height="32" viewBox="0 0 32 32" fill="none" xmlns="http://www.w3.org/2000/svg">
<path fill-rule="evenodd" clip-rule="evenodd" d="M16 5C12.134 5 9 8.13401 9 12C9 15.866 12.134 19 16 19C19.866 19 23 15.866 23 12C23 8.13401 19.866 5 16 5ZM7 12C7 7.02944 11.0294 3 16 3C20.9706 3 25 7.02944 25 12C25 16.9706 20.9706 21 16 21C11.0294 21 7 16.9706 7 12Z" fill="white"/>
<path fill-rule="evenodd" clip-rule="evenodd" d="M16 20.999C13.7179 20.999 11.4759 21.5998 9.49953 22.741C7.52315 23.8822 5.88202 25.5235 4.74112 27.5001C4.46502 27.9784 3.85344 28.1423 3.37512 27.8662C2.89681 27.5901 2.73288 26.9785 3.00897 26.5002C4.32541 24.2196 6.21902 22.3257 8.49945 21.009C10.7799 19.6922 13.3668 18.999 16 18.999C18.6333 18.999 21.2202 19.6922 23.5006 21.009C25.7811 22.3257 27.6747 24.2196 28.9911 26.5002C29.2672 26.9785 29.1033 27.5901 28.625 27.8662C28.1466 28.1423 27.5351 27.9784 27.259 27.5001C26.1181 25.5235 24.4769 23.8822 22.5006 22.741C20.5242 21.5998 18.2822 20.999 16 20.999Z" fill="white"/>
</svg>
